<?xml version="1.0" encoding="UTF-8"?>
<svg id="backup" xmlns="http://www.w3.org/2000/svg" viewBox="0 0 230 230">
  <defs>
    <style>
      .cls-1 {
        fill: #fff;
        stroke-width: 0px;
      }
    </style>
  </defs>
  <path class="cls-1" d="M102.5,188.29c21.85-34.13,49.44-61.15,82.78-78.04-25.52-1.18-51.05-.92-76.57-1.18-5.36-.05-9.46-.97-12.34-2.81-2.88-1.83-4.47-4.25-4.73-7.17-.27-3.04.92-5.4,3.61-7.04,2.69-1.64,6.87-2.19,12.49-1.77,34.48,2.59,68.95,4.28,103.43,9.46,13.44,2.11,19.08,5.93,16.93,10.59-1.01,2.27-2.89,3.92-5.58,5.08-2.69,1.17-7.87,2.98-15.21,6.12-31.58,13.81-58.16,37.38-79.74,67.83,23.91-9.41,47.82-18.87,71.74-25.75,4.25-1.22,7.24-1.59,8.9-1.29,1.66.31,2.08,1.2,1.31,2.7-.81,1.57-2.46,3.12-4.89,4.78-2.44,1.65-5.63,3.29-9.62,4.91-27.54,11.19-55.08,26.03-82.61,39.96-5.61,2.84-9.92,3.68-13.04,2.4-3.12-1.27-4.97-4.25-5.45-8.73-.16-1.53-.07-3.04.28-4.51.36-1.47.9-2.92,1.62-4.34.73-1.42,1.75-3.26,3.11-5.47,1.35-2.22,2.56-4.12,3.61-5.72Z"/>
  <g>
    <path class="cls-1" d="M93.36,158.81c.98-2.46,1.8-5.23,2.47-8.3.67-3.07,1.34-6.28,2.03-9.62,2.31-10.24,4.87-20.15,7.68-29.71-4.18-.32-7.52-1.27-10.12-2.93-4.47-2.85-5.74-6.65-5.98-9.27-.24-2.69.29-6.48,4.46-8.98,3.07-1.85,7.58-2.44,13.73-1.93,1.75.14,3.51.29,5.26.43,3.3-9.26,6.85-18.16,10.66-26.69.53-1.29,1.07-2.53,1.62-3.72.54-1.19,1-2.42,1.37-3.69.37-1.27.55-2.47.55-3.62,0-1.68-.6-3.46-1.79-5.37-1.19-1.91-2.84-3.61-4.95-5.1-2.11-1.49-4.4-2.53-6.85-3.1-3.36-.78-5.98-.72-7.83.21-1.86.93-3.15,2.18-3.87,3.73-.73,1.55-1.78,4.37-3.11,8.53-8.51,26.38-15.1,55.42-19.77,87.1-12.19-30.52-26.29-63.97-42.29-100.59-3.23-7.57-6.17-13.36-8.76-17.25-2.58-3.89-6.35-6.68-11.26-8.38-4-1.39-7.04-1.08-9.04,1.08-2.01,2.15-2.59,5.16-1.82,8.96.3,1.49.88,3.39,1.73,5.68.84,2.29,1.75,4.46,2.71,6.5.96,2.04,1.91,4.1,2.84,6.18,17.67,38.25,33.4,73.07,47.21,104.77,1.54,3.67,3.02,7.1,4.45,10.3,1.43,3.2,2.94,5.99,4.54,8.38,1.59,2.39,3.47,4.19,5.64,5.4,2.17,1.21,4.64,1.54,7.45,1.03,2.81-.52,5.1-1.72,6.9-3.56,1.8-1.83,3.19-3.98,4.17-6.44Z"/>
    <path class="cls-1" d="M107.85,92.51c-5.14-.35-8.94.16-11.26,1.59-2.07,1.27-2.93,2.91-2.74,5.11.11,1.29.6,3.25,3.48,5.09,2.21,1.42,5.41,2.24,9.52,2.47,1.45-4.76,2.96-9.44,4.54-14.03-1.18-.08-2.36-.16-3.54-.24Z"/>
  </g>
</svg>